<svg width="50" height="50" viewBox="0 0 50 50" fill="none" xmlns="http://www.w3.org/2000/svg">
<path d="M25 0C11.215 0 0 11.215 0 25C0 38.785 11.215 50 25 50C38.785 50 50 38.785 50 25C50 11.215 38.785 0 25 0ZM27.5 40H22.5V35H27.5V40ZM29.94 27.7875C29.45 28.1825 28.9775 28.56 28.6025 28.935C27.5825 29.9525 27.5025 30.8775 27.5 30.9175V31.25H22.5V30.8325C22.5 30.5375 22.5725 27.89 25.065 25.3975C25.5525 24.91 26.1575 24.415 26.7925 23.9C28.6275 22.4125 29.8325 21.3275 29.8325 19.8325C29.8035 18.5695 29.2813 17.3681 28.3777 16.4853C27.4741 15.6025 26.2608 15.1084 24.9975 15.1087C23.7342 15.109 22.5213 15.6037 21.6181 16.487C20.715 17.3703 20.1934 18.572 20.165 19.835H15.165C15.165 14.4125 19.5775 10 25 10C30.4225 10 34.835 14.4125 34.835 19.835C34.835 23.8275 31.8875 26.21 29.94 27.7875V27.7875Z" fill="black"/>
</svg>
